<svg height="100%" width="100%" id="bg-svg" viewBox="0 0 1440 600" xmlns="http://www.w3.org/2000/svg"
                class="transition duration-300 ease-in-out delay-150">
                <defs>
                    <linearGradient id="gradient" x1="100%" y1="10%" x2="0%" y2="90%">
                        <stop offset="30%" stop-color="#c31180"></stop>
                        <stop offset="70%" stop-color="#163756"></stop>
                    </linearGradient>
                </defs>
                <path fill-opacity="0.8"
                    d="M 0,400 C 0,400 0,200 0,200 C 62.21435932669186,184.39711439367915 124.42871865338373,168.79422878735826 205,169 C 285.5712813466163,169.20577121264174 384.49948471315696,185.22019924424598 444,202 C 503.50051528684304,218.77980075575402 523.5733424939884,236.32497423565786 582,218 C 640.4266575060116,199.67502576434214 737.2071453108898,145.47990381312266 816,142 C 894.7928546891102,138.52009618687734 955.5980762624527,185.7554105118516 1027,204 C 1098.4019237375473,222.2445894881484 1180.400549639299,211.49845413947097 1251,206 C 1321.599450360701,200.50154586052903 1380.7997251803504,200.25077293026453 1440,200 C 1440,200 1440,400 1440,400 Z"
                    stroke="none" stroke-width="0" fill="url(#gradient)"
                    class="transition-all duration-300 ease-in-out delay-150"></path>
            </svg>